<svg width="24" height="15" viewBox="0 0 24 15" fill="none" xmlns="http://www.w3.org/2000/svg">
<path d="M1 6.54102C0.447715 6.54102 0 6.98873 0 7.54102C0 8.0933 0.447715 8.54102 1 8.54102V6.54102ZM23.7071 8.24812C24.0976 7.8576 24.0976 7.22443 23.7071 6.83391L17.3431 0.469948C16.9526 0.0794234 16.3195 0.0794234 15.9289 0.469948C15.5384 0.860472 15.5384 1.49364 15.9289 1.88416L21.5858 7.54102L15.9289 13.1979C15.5384 13.5884 15.5384 14.2216 15.9289 14.6121C16.3195 15.0026 16.9526 15.0026 17.3431 14.6121L23.7071 8.24812ZM1 8.54102H23V6.54102H1V8.54102Z" fill="white"/>
</svg>
